# xmcd
#
# Track frame offsets: 
#        150
#        15512
#        34162
#        51612
#        66812
#        77750
#        91550
#        109712
#        123825
#        141375
#        154837
#        170250
#        184125
#        196662
#        211612
#        226575
#
# Disc length: 3215 seconds
#
# Revision: 5
# Processed by: cddbd v1.5.2PL0 Copyright (c) Steve Scherf et al.
# Submitted via: ExactAudioCopyFreeDBPlugin 1.0
#
DISCID=c40c8d10
DTITLE=Various Artist - American Style - The Best Of New Country Musi
DTITLE=c [CD 1)
DYEAR=1997
DGENRE=Country
TTITLE0=Patty Loveless - You Can Feel Bad
TTITLE1=Rodney Crowell - Oh King Richard
TTITLE2=Joe Deffie - Bigger Than The Beatles
TTITLE3=Exile - Shelter From The Night
TTITLE4=Collin Raye - Every Second
TTITLE5=Doug Stone - Addicted To A Dollar
TTITLE6=Larry Stewart - Heart Like A Hurricane
TTITLE7=Wade Hayes - On A Good Night
TTITLE8=Dave Allen Coe - Son Of The South
TTITLE9=Darden Smith - Never Let A Day Go By
TTITLE10=James House - This Is Me Missing You
TTITLE11=Larry Boone - To Be With You
TTITLE12=Ken Mellons - Lookin' In The Same Direction
TTITLE13=The Shooters - Remote Control
TTITLE14=Marty Stuart - Mirrors Don't Lie
TTITLE15=Rick Trevino - Bobbie Ann Mason
EXTD=YEAR: 1997
EXTT0=
EXTT1=
EXTT2=
EXTT3=
EXTT4=
EXTT5=
EXTT6=
EXTT7=
EXTT8=
EXTT9=
EXTT10=
EXTT11=
EXTT12=
EXTT13=
EXTT14=
EXTT15=
PLAYORDER=
